<?xml version="1.0" encoding="UTF-8"?>
<!-- Created with Inkscape by VulcanSphere (http://www.inkscape.org/ and https://vulcansphere.com) -->
<svg id="svg1" width="215.31" height="216.92" version="1.1" viewBox="0 0 215.31 216.92" xml:space="preserve" xmlns="http://www.w3.org/2000/svg">
<title id="title2">EleutherAI logo</title>
<desc id="desc4">Open-source artifical intelligence research organisation</desc>
<g id="g1" transform="translate(0 5.1041)"><g id="g20" transform="matrix(.31599 0 0 .31599 0 -3.4912)"><rect id="rect19" y="-5.1041" width="681.39" height="686.49" stroke-width="2.124"/><g id="g19" transform="translate(727.33)"><path id="path1-3" d="m-623.68 538.73c-1.7603-4.4537-3.2644-10.45-3.8308-15.271-0.39877-3.3947-0.24328-4.1268 1.5575-7.3333 1.1003-1.9592 2.1967-4.3978 2.4364-5.4191 0.26784-1.1408 1.0882-2.1049 2.1274-2.5 0.9303-0.3537 6.7872-0.64309 13.015-0.64309h11.324l0.96598 2.3119c1.2211 2.9226 1.2267 5.0777 0.0172 6.7273-0.87387 1.192-1.8208 1.2929-12 1.2787l-11.051-0.0154v8.9349l3.5 0.35338c1.925 0.19436 6.5 0.50267 10.167 0.68514 7.3056 0.36356 16.001 1.8404 18.848 3.2013 1.6953 0.81025 1.8317 1.1899 2.0125 5.5999l0.19393 4.7307-3.5273 0.42363c-1.94 0.233-10.467 0.42624-18.95 0.42942l-15.423 6e-3zm444.94 2.2389c-0.50105-0.81073-0.49958-2.8083 0.0146-19.85 0.46733-15.489-0.3131-27.813-2.02-31.898-0.49411-1.1826-1.5968-2.6394-2.4505-3.2373-1.4839-1.0394-1.2877-1.0871 4.4688-1.0871 3.9227 0 6.4386 0.30546 7.2196 0.87653 0.70528 0.51572 1.855 3.3286 2.7931 6.8333 1.507 5.6305 2.1064 11.071 3.465 31.455 0.51039 7.6574 0.65888 8.2841 2.3912 10.092 1.1649 1.2159 1.9828 2.9402 2.2147 4.6689l0.36765 2.741h-9.0484c-4.9766 0-9.2138-0.26751-9.4158-0.59446zm-55.904-0.79538c-2.1225-0.2417-3.9608-0.55287-4.0852-0.69147-0.12436-0.13861-0.36509-11.545-0.53496-25.347l-0.30884-25.095 6.0607-0.38934c3.3334-0.21413 13.779-0.58283 23.213-0.81933l17.152-0.42999 0.73989 1.9147c2.1318 5.5165 2.7083 11.073 3.0352 29.248 0.37454 20.83 0.19198 22-3.4326 22-1.8779 0-2.0383-0.22416-3.1015-4.3333-0.61665-2.3833-1.1416-6.3238-1.1667-8.7566l-0.0455-4.4233-5.1667-0.71355c-2.8417-0.39246-9.1569-1.076-14.034-1.5189-7.8214-0.71038-8.9889-0.6838-9.898 0.22538-0.795 0.795-1.0785 2.947-1.2397 9.4093-0.11491 4.6082-0.38112 8.6572-0.59157 8.9977-0.61238 0.99085-2.4646 1.194-6.5959 0.72357zm32.711-32.981c1.1935-0.83595 1.4817-1.6829 1.4817-4.3543 0-2.0756-0.31178-3.4098-0.83333-3.566-0.45833-0.13725-7.2833-0.53286-15.167-0.87914-16.57-0.72786-16-0.91834-16 5.3459v3.9206l3.5-0.38583c1.925-0.2122 6.8-0.12721 10.833 0.18888 11.771 0.92245 14.549 0.87609 16.185-0.27012zm-271.52 28.955c-6.9661-4.6456-9.0406-6.4887-11.83-10.511l-2.0304-2.9278 0.37302-10.072c0.45176-12.199 1.313-16.253 3.5731-16.82 2.1829-0.54788 5.9382 0.23791 6.9472 1.4537 0.67155 0.80918 0.59477 2.1321-0.39562 6.8157-0.6759 3.1964-1.2457 8.1665-1.2663 11.045l-0.0374 5.2329 3.9607 3.69c5.3794 5.0118 8.09 6.1447 14.745 6.1628 8.2125 0.0224 7.9525 0.46964 8.0026-13.767 0.046-13.075 0.72636-16.933 3.2822-18.607 1.3744-0.90051 1.8712-0.924 3.458-0.16347 1.5692 0.75211 2.0242 1.6246 2.9705 5.6966 1.887 8.1196 3.3867 20.058 2.8895 23.001-0.58841 3.4828-3.3827 11.738-4.3797 12.94-0.593 0.71452-3.328 0.90547-12.511 0.87346l-11.752-0.041zm-101.41 2.7641c-1.8894-0.76352-2.0959-2.1384-2.9256-19.48-0.69511-14.528-1.5385-24.715-2.4046-29.046l-0.43105-2.1552h3.052c1.6786 0 3.8083 0.34461 4.7327 0.7658 3.0815 1.404 4.715 8.454 5.3833 23.234 0.20725 4.5833 0.54439 10.817 0.7492 13.853l0.37239 5.5193 5.7719-0.36035c4.6039-0.28744 6.3789-0.11888 8.7719 0.833 3.0338 1.2068 3.6071 2.0686 1.9232 2.8914-0.50775 0.24811-2.5181 1.384-4.4675 2.5242-3.434 2.0086-3.7867 2.0718-11.333 2.0308-4.284-0.0232-8.4214-0.29783-9.1944-0.61018zm154.13-1.1809c-0.23867-1.0083-0.61407-7.5629-0.83423-14.566l-0.40028-12.732-4.0702-0.75692c-5.8622-1.0902-9.573-4.1612-7.9893-6.6117 0.62359-0.96488 1.591-1.1361 5.5933-0.98994l4.8393 0.17672-0.4469-4.8085c-0.2458-2.6447-0.8906-5.6979-1.4329-6.7849-0.54229-1.0871-0.85598-2.1065-0.69708-2.2654 0.15889-0.15889 2.8818-0.0729 6.0509 0.19107 6.5664 0.54698 6.4845 0.46485 7.2928 7.3143 0.77339 6.5537 0.9665 7 3.0288 7 4.2728 0 5.84 0.73315 6.9172 3.236 2.0998 4.8787 1.989 5.0582-3.3528 5.4307-2.629 0.18334-4.8989 0.48334-5.0443 0.66667-0.58391 0.73644 0.71625 15.4 1.4431 16.276 0.42929 0.51726 2.2657 1.2968 4.0808 1.7322 4.8742 1.1693 4.5558 2.6078-1.6247 7.3407-2.3608 1.8079-3.0516 1.9847-7.7556 1.9847-5.0838 0-5.1707-0.0285-5.5979-1.8333zm59.092-3.2827c-1.167-2.5318-2.7321-6.3914-3.478-8.577-0.74593-2.1855-2.7332-5.9983-4.4161-8.4729-3.482-5.1199-4.6822-5.6854-10.966-5.1675l-4.0442 0.33333-0.12096 12.667-0.12097 12.667-3.3333 0.19558c-4.4022 0.2583-5.6913-0.75819-6.3648-5.0191-0.4793-3.032-1.2263-15.049-2.3251-37.403l-0.3716-7.5598 7.3324 0.22646c8.7677 0.2708 10.212 1.0324 6.8879 3.6336-2.2807 1.7849-2.5864 3.2521-1.7417 8.3598l0.40245 2.4336 15.54-0.716 3.7931 3.4667c5.6464 5.1604 8.5784 10.044 11.741 19.554 1.5249 4.5855 2.7725 9.112 2.7725 10.059 0 2.0912-1.5652 3.0344-5.8849 3.546l-3.1801 0.37664zm-172.15 0.88593c-2.0167-1.5927-5.0917-4.4297-6.8333-6.3044l-3.1667-3.4085 0.0104-7.5286c6e-3 -4.1407 0.4067-9.212 0.89104-11.27 1.0076-4.2805 5.2277-12.243 6.8105-12.851 0.58507-0.22452 8.6892-0.40821 18.009-0.40821 15.721 0 16.945 0.0847 16.945 1.1716 0 0.64437 1.3468 3.8694 2.9929 7.1667 4.3315 8.6765 4.3718 8.588-4.2088 9.2292-4.8958 0.36584-6.4711 1.461-7.4774 5.1984-0.89775 3.334-1.8312 3.5376-13.655 2.9789l-9.4885-0.44833-0.32311 4.1851c-0.17771 2.3018-0.17087 4.4518 0.0152 4.7778 0.19236 0.33702 9.2124 0.45043 20.908 0.26289 14.782-0.23702 20.567-0.12241 20.56 0.40727-6e-3 0.40541-1.2232 2.0871-2.7055 3.7371s-3.1621 3.675-3.7329 4.5c-1.0257 1.4824-1.2183 1.5-16.461 1.4996l-15.423-4.2e-4zm26.863-24.619c2.0418-1.3383 2.3306-3.2165 0.70262-4.5697-1.5066-1.2523-27.163-1.7461-28.603-0.55049-0.57678 0.47869-0.96248 1.9957-0.96248 3.7856v2.9868l13.53-0.23511c11.57-0.20106 13.791-0.40632 15.333-1.4172zm171.8 25.261c-1.65-1.222-4.725-4.0423-6.8333-6.2673l-3.8333-4.0456 8e-3 -7.8828c5e-3 -4.5996 0.39488-9.3364 0.93701-11.373 1.1203-4.2083 5.2885-11.868 6.767-12.435 0.58508-0.22452 8.6892-0.40821 18.009-0.40821 16.256 0 16.945 0.052 16.945 1.278 0 0.70288 1.0047 3.1779 2.2328 5.5 2.5832 4.8847 4.0901 9.1214 3.4663 9.7452-0.23862 0.23863-2.839 0.64056-5.7786 0.89318-6.102 0.52439-7.558 1.4286-8.6138 5.3494-0.8976 3.3334-1.8321 3.5376-13.64 2.9797l-9.4731-0.44761-0.42711 4.0863c-0.2349 2.2475-0.23498 4.3972-1.7e-4 4.7771 0.28685 0.46412 7.1766 0.58257 20.997 0.36096 11.973-0.19198 20.57-0.0794 20.57 0.26951 0 0.32964-1.725 2.6792-3.8333 5.2211l-3.8333 4.6218-30.667-0.00108zm26.197-25.261c2.0418-1.3383 2.3306-3.2165 0.70262-4.5697-1.5066-1.2523-27.163-1.7461-28.603-0.55049-0.57679 0.47869-0.96248 1.9957-0.96248 3.7856v2.9868l13.53-0.23511c11.57-0.20106 13.791-0.40632 15.333-1.4172zm20.704 24.709c-0.38498-0.6074-1.6001-36.041-1.2672-36.953 0.0186-0.0509 8.2405-0.31226 18.271-0.58078l18.237-0.48822-0.49408 1.5567c-0.27175 0.8562-0.67971 3.0676-0.90659 4.9141l-0.4125 3.3574-3.664-0.0827c-2.0152-0.0455-6.064-0.19547-8.9973-0.33333s-6.1724-0.0164-7.1979 0.26989l-1.8646 0.52055 0.40748 12.479c0.51915 15.9 0.58448 15.738-6.473 16.006-3.6105 0.13731-5.252-0.0568-5.6385-0.66667zm-337.54-33.194c-0.035-0.18333-0.13111-3.5643-0.21352-7.5133l-0.14985-7.18 4.6667 0.33297c2.5667 0.18313 9.4667 0.50488 15.333 0.71499 5.8667 0.21011 11.717 0.54292 13 0.73959l2.3333 0.35758v9.5482l-16.933 0.33333c-16.155 0.31802-16.957 0.3946-17.453 1.6667-0.28585 0.73333-0.54839 1.1833-0.58341 1z" fill="#ddd"/><path id="path1" d="m-418.87 447.26c-60.239-2.7597-103.01-16.23-126.67-39.895-33.88-33.887-32.296-87.49 4.8064-162.57 33.632-68.059 71.603-115 107.76-133.23 10.992-5.541 25.652-9.2155 36.768-9.2155 11.116 0 25.776 3.6746 36.768 9.2155 36.107 18.202 74.011 65.005 107.53 132.78 29.954 60.563 36.902 106.95 21.041 140.49-14.868 31.437-48.951 50.767-103.67 58.797-16.672 2.4464-31.634 3.4294-55.667 3.6577-12.833 0.12187-25.733 0.11163-28.667-0.0227zm47.333-4.8641c15.363-2.6208 26.452-6.1754 40.667-13.035 30.893-14.909 54.387-38.398 69.368-69.355 17.184-35.508 19.588-74.883 6.9056-113.07-4.6915-14.127-15.115-32.884-25.328-45.578-20.28-25.205-51.061-44.27-82.78-51.27-13.109-2.8932-17.628-3.3633-32.499-3.3806-25.099-0.0292-43.074 4.0103-65 14.607-44.629 21.569-74.63 62.178-82.767 112.03-1.6755 10.265-1.6864 33.005-0.0209 43.667 5.036 32.237 19.712 61.281 42.306 83.729 12.496 12.414 23.723 20.384 39.815 28.263 17.646 8.6398 29.935 12.103 53 14.934 6.0042 0.73706 28.611-0.21861 36.333-1.5359zm-33.333-4.9927c-33.143-6.4469-67.449-43.339-98.009-105.4-11.256-22.857-17.561-40.521-20.704-58.005-1.6947-9.4272-1.7168-26.738-0.0435-33.995 7.1098-30.832 31.521-49.025 76.423-56.954 16.416-2.899 27.075-3.6405 52.333-3.6405s35.917 0.74147 52.333 3.6405c44.872 7.9241 69.318 26.143 76.423 56.954 1.8004 7.8074 1.6634 24.631-0.28543 35.058-3.2634 17.461-10.086 36.326-21.154 58.496-24.984 50.042-53.216 84.555-79.984 97.778-4.0333 1.9924-9.7333 4.2498-12.667 5.0164-6.8537 1.7913-18.339 2.2797-24.667 1.0489zm22.351-33.766c8.0167-0.99606 14.68-2.4403 21.983-4.7649 45.438-14.464 77.232-58.002 77.32-105.88 0.0569-30.663-12.088-59.091-34.488-80.733-29.784-28.775-72.813-38.572-112.1-25.522-17.888 5.9417-32.127 14.949-45.483 28.774-32.081 33.206-40.298 82.821-20.619 124.5 14.57 30.858 41.533 52.811 75.369 61.365 10.661 2.6954 26.813 3.6581 38.017 2.266zm-25.684-27.077c-47.293-2.9176-74.363-16.084-82.77-40.259-6.481-18.636-1.869-42.37 14.501-74.628 13.82-27.233 30.512-49.776 46.232-62.44 7.0644-5.691 18.105-11.117 25.678-12.619 17.634-3.4976 35.089 3.8032 53.359 22.318 13.545 13.727 28.324 35.449 40.098 58.938 16.221 32.36 19.943 57.538 11.158 75.499-9.4184 19.257-32.988 30.104-71.59 32.945-8.4894 0.625-28.366 0.75868-36.667 0.24659z" fill="#fff"/></g></g></g></svg>
