
<svg width="20px" height="20px" viewBox="0 0 20 20" version="1.1" xmlns="http://www.w3.org/2000/svg" xmlns:xlink="http://www.w3.org/1999/xlink">
    <g id="Page-1" stroke="none" stroke-width="1" fill="none" fill-rule="evenodd">
        <g id="Desktop-HD" transform="translate(-1057.000000, -124.000000)" fill="#FFFFFF">
            <g id="Group" transform="translate(1057.000000, 124.000000)">
                <path d="M10,14 C12.209139,14 14,12.209139 14,10 C14,7.790861 12.209139,6 10,6 L10,14 Z" id="Path" fill-rule="nonzero"></path>
                <path d="M10,0 C4.477,0 0,4.477 0,10 C0,15.523 4.477,20 10,20 C15.523,20 20,15.523 20,10 C20,4.477 15.523,0 10,0 Z M10,2 L10,6 C7.790861,6 6,7.790861 6,10 C6,12.209139 7.790861,14 10,14 L10,18 C14.418278,18 18,14.418278 18,10 C18,5.581722 14.418278,2 10,2 Z" id="Shape"></path>
            </g>
        </g>
    </g>
</svg>