<?xml version="1.0" encoding="UTF-8" standalone="no"?>
<svg xmlns="http://www.w3.org/2000/svg" viewBox="0 0 948.28338 943.76308"><defs><style>.a{fill:#fff;}</style></defs><path class="a" d="M875.402,369.43408C817,265,680.2453,37.67926,512.00018,40.02826,328.39624,35.86792,178.68933,317.90472,163.566,343.566,70.50946,501.60376-8.283,704.01886,70.283,831.03772,113.30188,904.39624,224.2453,985.35852,511.99988,983.717c257.90576,1.64154,399.18878-67.09436,443.29779-156.51526C1037.9812,680.69812,936.54718,476.47168,875.402,369.43408ZM512.5,972.0943c-224.50372,0-406.5-181.99622-406.5-406.5,0-224.50372,181.99628-406.5,406.5-406.5S919,341.09058,919,565.5943C919,790.09808,737.00372,972.0943,512.5,972.0943Z" transform="translate(-38.13931 -39.98269)"/><path class="a" d="M846.64948,363.50043C814.395,308.50665,731.21234,247.81256,515.46088,249.04315c-193.37159-1.23059-299.30219,50.29785-332.374,117.333C121.09277,476.20386,196.65479,629.75836,242.5,710c43.78839,78.28992,146.81451,248.24841,272.96063,246.48743,137.66181,3.11883,249.90845-208.31244,261.2475-227.54969C846.47974,610.46344,905.5564,458.72125,846.64948,363.50043ZM514.5,865.5943c-168.723,0-305.5-136.777-305.5-305.5,0-168.723,136.777-305.5,305.5-305.5s305.5,136.777,305.5,305.5C820,728.81732,683.223,865.5943,514.5,865.5943Z" transform="translate(-38.13931 -39.98269)"/><path class="a" d="M515.02765,266.534c95.82141,1.63577,172.7047,124.83835,206.19877,182.65465,35.06731,59.25762,93.0566,175.92453,50.26415,253.35849-31.92453,53.32075-100.18868,86.45569-248.94193,86.43975-165.73732.01594-232.08448-44.80851-256.75619-85.42088-45.849-67.24529-7.81132-175.01887,47.88681-270.33963C333.46442,402.0371,413.86792,260.35849,515.02765,266.534Z" transform="translate(-38.13931 -39.98269)"/></svg>
